<svg xmlns="http://www.w3.org/2000/svg" data-name="Layer 1" viewBox="0 0 100 125" x="0px" y="0px" fill="#9ca3af"><title>ui circle glyph 100</title>
<path d="M50,3.44A46.56,46.56,0,1,0,96.56,50,46.55,46.55,0,0,0,50,3.44Zm6.61,51.37A22.08,22.08,0,0,1,71.82,72.59,2.86,2.86,0,0,1,69,75.87H31a2.86,2.86,0,0,1-2.84-3.28A22.09,22.09,0,0,1,43.39,54.81,4,4,0,0,0,46.21,51v-1.9a4,4,0,0,0-2.82-3.86A22.09,22.09,0,0,1,28.18,27.41,2.86,2.86,0,0,1,31,24.13H69a2.86,2.86,0,0,1,2.84,3.28A22.08,22.08,0,0,1,56.61,45.19a4.05,4.05,0,0,0-2.82,3.87v1.88A4.05,4.05,0,0,0,56.61,54.81Z"/></svg>