<svg width="132" height="13" viewBox="0 0 132 13" fill="none" xmlns="http://www.w3.org/2000/svg">
<path d="M12.4668 8.5V12.1914C12.4668 12.5469 12.166 12.8203 11.8379 12.8203H8.11914C7.76367 12.8203 7.46289 12.6016 7.32617 12.2734C7.18945 11.9727 7.27148 11.5625 7.51758 11.3164L8.33789 10.4961L6.36914 8.60938L4.40039 10.5781L5.2207 11.3984C5.4668 11.6445 5.54883 12.0273 5.41211 12.3555C5.27539 12.6836 4.94727 12.875 4.61914 12.875H0.900391C0.517578 12.875 0.244141 12.5742 0.244141 12.2188V8.52734C0.244141 8.17188 0.462891 7.87109 0.791016 7.73438C0.873047 7.65234 0.982422 7.625 1.11914 7.625C1.33789 7.625 1.55664 7.73438 1.7207 7.89844L2.54102 8.71875L4.50977 6.75L2.54102 4.80859L1.7207 5.62891C1.47461 5.875 1.0918 5.95703 0.763672 5.82031C0.435547 5.68359 0.244141 5.35547 0.244141 5V1.28125C0.244141 0.925781 0.517578 0.652344 0.873047 0.652344H4.56445C4.91992 0.652344 5.2207 0.871094 5.35742 1.19922C5.4668 1.28125 5.4668 1.39062 5.4668 1.5C5.4668 1.71875 5.35742 1.9375 5.19336 2.10156L4.40039 2.94922L6.36914 4.91797L8.31055 2.94922L7.49023 2.12891C7.24414 1.88281 7.16211 1.5 7.29883 1.17188C7.43555 0.84375 7.76367 0.652344 8.11914 0.652344H11.8105C12.166 0.652344 12.4395 0.925781 12.4395 1.28125V4.97266C12.4395 5.32812 12.2207 5.62891 11.8926 5.76562C11.5918 5.90234 11.1816 5.82031 10.9355 5.57422L10.1152 4.75391L8.17383 6.72266L10.1152 8.66406L10.9355 7.84375C11.1816 7.59766 11.5645 7.51562 11.8926 7.65234C12.2754 7.84375 12.4668 8.17188 12.4668 8.5ZM27.1703 4.36364C27.1106 3.85985 26.8687 3.46875 26.4444 3.19034C26.0202 2.91193 25.4998 2.77273 24.8833 2.77273C24.4326 2.77273 24.0382 2.84564 23.7001 2.99148C23.3654 3.13731 23.1035 3.33783 22.9146 3.59304C22.729 3.84825 22.6362 4.13826 22.6362 4.46307C22.6362 4.73485 22.7008 4.96851 22.8301 5.16406C22.9627 5.3563 23.1317 5.51705 23.3372 5.64631C23.5427 5.77225 23.7581 5.87666 23.9835 5.95952C24.2089 6.03906 24.416 6.10369 24.6049 6.15341L25.639 6.43182C25.9042 6.50142 26.1992 6.59754 26.524 6.72017C26.8521 6.8428 27.1653 7.01018 27.4636 7.2223C27.7652 7.43111 28.0138 7.69957 28.2093 8.0277C28.4049 8.35582 28.5027 8.75852 28.5027 9.2358C28.5027 9.78598 28.3585 10.2831 28.0701 10.7273C27.7851 11.1714 27.3675 11.5244 26.8173 11.7862C26.2704 12.0481 25.6059 12.179 24.8237 12.179C24.0945 12.179 23.4631 12.0613 22.9295 11.826C22.3992 11.5907 21.9816 11.2625 21.6767 10.8416C21.3751 10.4207 21.2044 9.93182 21.1646 9.375H22.4373C22.4705 9.75947 22.5997 10.0777 22.8251 10.3295C23.0538 10.5781 23.3422 10.7637 23.6902 10.8864C24.0415 11.0057 24.4193 11.0653 24.8237 11.0653C25.2943 11.0653 25.7169 10.9891 26.0914 10.8366C26.466 10.6809 26.7626 10.4654 26.9814 10.1903C27.2001 9.91193 27.3095 9.58712 27.3095 9.21591C27.3095 8.87784 27.215 8.60275 27.0261 8.39062C26.8372 8.1785 26.5886 8.00616 26.2804 7.87358C25.9721 7.741 25.639 7.625 25.2811 7.52557L24.0282 7.16761C23.2328 6.93892 22.603 6.61245 22.139 6.18821C21.675 5.76397 21.443 5.20881 21.443 4.52273C21.443 3.95265 21.5971 3.45549 21.9054 3.03125C22.2169 2.60369 22.6345 2.27225 23.1582 2.03693C23.6852 1.7983 24.2735 1.67898 24.9231 1.67898C25.5794 1.67898 26.1627 1.79664 26.6731 2.03196C27.1835 2.26397 27.5879 2.58215 27.8862 2.98651C28.1878 3.39086 28.3469 3.8499 28.3635 4.36364H27.1703ZM33.5724 12.1591C32.8366 12.1591 32.2019 11.9967 31.6683 11.6719C31.138 11.3438 30.7287 10.8864 30.4403 10.2997C30.1553 9.70975 30.0128 9.02367 30.0128 8.24148C30.0128 7.45928 30.1553 6.76989 30.4403 6.1733C30.7287 5.57339 31.1297 5.10606 31.6435 4.77131C32.1605 4.43324 32.7637 4.2642 33.4531 4.2642C33.8509 4.2642 34.2436 4.33049 34.6314 4.46307C35.0192 4.59564 35.3722 4.81108 35.6903 5.10938C36.0085 5.40436 36.2621 5.79545 36.451 6.28267C36.6399 6.76989 36.7344 7.36979 36.7344 8.08239V8.57955H30.848V7.56534H35.5412C35.5412 7.13447 35.455 6.75 35.2827 6.41193C35.1136 6.07386 34.8717 5.80705 34.5568 5.61151C34.2453 5.41596 33.8774 5.31818 33.4531 5.31818C32.9858 5.31818 32.5814 5.43419 32.2401 5.66619C31.902 5.89489 31.6418 6.19318 31.4595 6.56108C31.2772 6.92898 31.1861 7.32339 31.1861 7.74432V8.42045C31.1861 8.99716 31.2855 9.48603 31.4844 9.88707C31.6866 10.2848 31.9666 10.5881 32.3246 10.7969C32.6825 11.0024 33.0985 11.1051 33.5724 11.1051C33.8807 11.1051 34.1591 11.062 34.4077 10.9759C34.6596 10.8864 34.8767 10.7538 35.0589 10.5781C35.2412 10.3991 35.3821 10.1771 35.4815 9.91193L36.6151 10.2301C36.4957 10.6146 36.2952 10.9527 36.0135 11.2443C35.7318 11.5327 35.3838 11.758 34.9695 11.9205C34.5552 12.0795 34.0895 12.1591 33.5724 12.1591ZM41.7209 12.1591C40.9851 12.1591 40.3504 11.9967 39.8168 11.6719C39.2865 11.3438 38.8771 10.8864 38.5888 10.2997C38.3037 9.70975 38.1612 9.02367 38.1612 8.24148C38.1612 7.45928 38.3037 6.76989 38.5888 6.1733C38.8771 5.57339 39.2782 5.10606 39.7919 4.77131C40.3089 4.43324 40.9122 4.2642 41.6016 4.2642C41.9993 4.2642 42.392 4.33049 42.7798 4.46307C43.1676 4.59564 43.5206 4.81108 43.8388 5.10938C44.157 5.40436 44.4105 5.79545 44.5994 6.28267C44.7884 6.76989 44.8828 7.36979 44.8828 8.08239V8.57955H38.9964V7.56534H43.6896C43.6896 7.13447 43.6035 6.75 43.4311 6.41193C43.2621 6.07386 43.0201 5.80705 42.7053 5.61151C42.3937 5.41596 42.0258 5.31818 41.6016 5.31818C41.1342 5.31818 40.7299 5.43419 40.3885 5.66619C40.0504 5.89489 39.7902 6.19318 39.608 6.56108C39.4257 6.92898 39.3345 7.32339 39.3345 7.74432V8.42045C39.3345 8.99716 39.4339 9.48603 39.6328 9.88707C39.835 10.2848 40.1151 10.5881 40.473 10.7969C40.831 11.0024 41.2469 11.1051 41.7209 11.1051C42.0291 11.1051 42.3075 11.062 42.5561 10.9759C42.808 10.8864 43.0251 10.7538 43.2074 10.5781C43.3897 10.3991 43.5305 10.1771 43.63 9.91193L44.7635 10.2301C44.6442 10.6146 44.4437 10.9527 44.1619 11.2443C43.8802 11.5327 43.5322 11.758 43.1179 11.9205C42.7036 12.0795 42.2379 12.1591 41.7209 12.1591ZM50.7642 12V1.81818H56.8693V2.91193H51.9972V6.35227H56.4119V7.44602H51.9972V12H50.7642ZM63.1559 8.87784V4.36364H64.3292V12H63.1559V10.7074H63.0763C62.8974 11.0952 62.619 11.425 62.2411 11.6967C61.8633 11.9652 61.386 12.0994 60.8093 12.0994C60.332 12.0994 59.9078 11.995 59.5366 11.7862C59.1654 11.5741 58.8737 11.2559 58.6616 10.8317C58.4495 10.4041 58.3434 9.86553 58.3434 9.21591V4.36364H59.5167V9.13636C59.5167 9.69318 59.6725 10.1373 59.984 10.4688C60.2989 10.8002 60.6999 10.9659 61.1871 10.9659C61.4788 10.9659 61.7755 10.8913 62.0771 10.7422C62.382 10.593 62.6372 10.3643 62.8427 10.0561C63.0515 9.74787 63.1559 9.35511 63.1559 8.87784ZM67.6515 1.81818V12H66.4782V1.81818H67.6515ZM70.9737 1.81818V12H69.8004V1.81818H70.9737ZM77.2193 12V1.81818H80.6596C81.4584 1.81818 82.1113 1.96236 82.6184 2.25071C83.1288 2.53575 83.5067 2.92188 83.752 3.40909C83.9972 3.89631 84.1199 4.43987 84.1199 5.03977C84.1199 5.63968 83.9972 6.1849 83.752 6.67543C83.51 7.16596 83.1355 7.55705 82.6284 7.84872C82.1213 8.13707 81.4717 8.28125 80.6795 8.28125H78.2136V7.1875H80.6397C81.1866 7.1875 81.6258 7.09304 81.9572 6.90412C82.2886 6.7152 82.5289 6.45999 82.6781 6.13849C82.8306 5.81368 82.9068 5.44744 82.9068 5.03977C82.9068 4.6321 82.8306 4.26752 82.6781 3.94602C82.5289 3.62453 82.287 3.37263 81.9522 3.19034C81.6175 3.00473 81.1734 2.91193 80.6199 2.91193H78.4522V12H77.2193ZM88.9672 12.1591C88.2778 12.1591 87.6729 11.995 87.1525 11.6669C86.6355 11.3388 86.2311 10.8797 85.9395 10.2898C85.6511 9.69981 85.5069 9.01042 85.5069 8.22159C85.5069 7.42614 85.6511 6.73177 85.9395 6.13849C86.2311 5.54522 86.6355 5.08452 87.1525 4.75639C87.6729 4.42827 88.2778 4.2642 88.9672 4.2642C89.6565 4.2642 90.2598 4.42827 90.7768 4.75639C91.2972 5.08452 91.7015 5.54522 91.9899 6.13849C92.2815 6.73177 92.4274 7.42614 92.4274 8.22159C92.4274 9.01042 92.2815 9.69981 91.9899 10.2898C91.7015 10.8797 91.2972 11.3388 90.7768 11.6669C90.2598 11.995 89.6565 12.1591 88.9672 12.1591ZM88.9672 11.1051C89.4908 11.1051 89.9217 10.9709 90.2598 10.7024C90.5978 10.4339 90.8481 10.081 91.0105 9.64347C91.1729 9.20597 91.2541 8.73201 91.2541 8.22159C91.2541 7.71117 91.1729 7.23556 91.0105 6.79474C90.8481 6.35393 90.5978 5.99763 90.2598 5.72585C89.9217 5.45407 89.4908 5.31818 88.9672 5.31818C88.4435 5.31818 88.0126 5.45407 87.6745 5.72585C87.3365 5.99763 87.0862 6.35393 86.9238 6.79474C86.7614 7.23556 86.6802 7.71117 86.6802 8.22159C86.6802 8.73201 86.7614 9.20597 86.9238 9.64347C87.0862 10.081 87.3365 10.4339 87.6745 10.7024C88.0126 10.9709 88.4435 11.1051 88.9672 11.1051ZM94.2184 12V4.36364H95.3519V5.51705H95.4315C95.5707 5.1392 95.8226 4.83262 96.1871 4.5973C96.5517 4.36198 96.9627 4.24432 97.4201 4.24432C97.5063 4.24432 97.614 4.24597 97.7433 4.24929C97.8725 4.2526 97.9703 4.25758 98.0366 4.2642V5.45739C97.9968 5.44744 97.9057 5.43253 97.7631 5.41264C97.6239 5.38944 97.4764 5.37784 97.3207 5.37784C96.9495 5.37784 96.618 5.45573 96.3263 5.61151C96.038 5.76397 95.8093 5.97609 95.6403 6.24787C95.4746 6.51634 95.3917 6.82292 95.3917 7.16761V12H94.2184ZM103.227 4.36364V5.35795H99.2695V4.36364H103.227ZM100.423 2.53409H101.596V9.8125C101.596 10.1439 101.644 10.3925 101.74 10.5582C101.84 10.7206 101.966 10.83 102.118 10.8864C102.274 10.9394 102.438 10.9659 102.61 10.9659C102.74 10.9659 102.846 10.9593 102.929 10.946C103.011 10.9295 103.078 10.9162 103.127 10.9062L103.366 11.9602C103.287 11.9901 103.176 12.0199 103.033 12.0497C102.891 12.0829 102.71 12.0994 102.491 12.0994C102.16 12.0994 101.835 12.0282 101.517 11.8857C101.202 11.7431 100.94 11.526 100.731 11.2344C100.526 10.9427 100.423 10.5748 100.423 10.1307V2.53409ZM108.392 4.36364V5.35795H104.276V4.36364H108.392ZM105.509 12V3.30966C105.509 2.87216 105.612 2.50758 105.817 2.21591C106.023 1.92424 106.289 1.70549 106.618 1.55966C106.946 1.41383 107.292 1.34091 107.657 1.34091C107.945 1.34091 108.18 1.36411 108.363 1.41051C108.545 1.45691 108.681 1.5 108.77 1.53977L108.432 2.55398C108.373 2.53409 108.29 2.50923 108.184 2.4794C108.081 2.44957 107.945 2.43466 107.776 2.43466C107.388 2.43466 107.108 2.53243 106.936 2.72798C106.767 2.92353 106.682 3.21023 106.682 3.58807V12H105.509ZM112.825 12.1591C112.135 12.1591 111.53 11.995 111.01 11.6669C110.493 11.3388 110.089 10.8797 109.797 10.2898C109.509 9.69981 109.364 9.01042 109.364 8.22159C109.364 7.42614 109.509 6.73177 109.797 6.13849C110.089 5.54522 110.493 5.08452 111.01 4.75639C111.53 4.42827 112.135 4.2642 112.825 4.2642C113.514 4.2642 114.117 4.42827 114.634 4.75639C115.155 5.08452 115.559 5.54522 115.847 6.13849C116.139 6.73177 116.285 7.42614 116.285 8.22159C116.285 9.01042 116.139 9.69981 115.847 10.2898C115.559 10.8797 115.155 11.3388 114.634 11.6669C114.117 11.995 113.514 12.1591 112.825 12.1591ZM112.825 11.1051C113.348 11.1051 113.779 10.9709 114.117 10.7024C114.455 10.4339 114.705 10.081 114.868 9.64347C115.03 9.20597 115.112 8.73201 115.112 8.22159C115.112 7.71117 115.03 7.23556 114.868 6.79474C114.705 6.35393 114.455 5.99763 114.117 5.72585C113.779 5.45407 113.348 5.31818 112.825 5.31818C112.301 5.31818 111.87 5.45407 111.532 5.72585C111.194 5.99763 110.944 6.35393 110.781 6.79474C110.619 7.23556 110.538 7.71117 110.538 8.22159C110.538 8.73201 110.619 9.20597 110.781 9.64347C110.944 10.081 111.194 10.4339 111.532 10.7024C111.87 10.9709 112.301 11.1051 112.825 11.1051ZM119.249 1.81818V12H118.076V1.81818H119.249ZM121.398 12V4.36364H122.571V12H121.398ZM121.995 3.09091C121.766 3.09091 121.569 3.01302 121.403 2.85724C121.241 2.70147 121.159 2.5142 121.159 2.29545C121.159 2.0767 121.241 1.88944 121.403 1.73366C121.569 1.57789 121.766 1.5 121.995 1.5C122.223 1.5 122.419 1.57789 122.581 1.73366C122.747 1.88944 122.83 2.0767 122.83 2.29545C122.83 2.5142 122.747 2.70147 122.581 2.85724C122.419 3.01302 122.223 3.09091 121.995 3.09091ZM127.823 12.1591C127.133 12.1591 126.528 11.995 126.008 11.6669C125.491 11.3388 125.087 10.8797 124.795 10.2898C124.507 9.69981 124.362 9.01042 124.362 8.22159C124.362 7.42614 124.507 6.73177 124.795 6.13849C125.087 5.54522 125.491 5.08452 126.008 4.75639C126.528 4.42827 127.133 4.2642 127.823 4.2642C128.512 4.2642 129.115 4.42827 129.632 4.75639C130.153 5.08452 130.557 5.54522 130.845 6.13849C131.137 6.73177 131.283 7.42614 131.283 8.22159C131.283 9.01042 131.137 9.69981 130.845 10.2898C130.557 10.8797 130.153 11.3388 129.632 11.6669C129.115 11.995 128.512 12.1591 127.823 12.1591ZM127.823 11.1051C128.346 11.1051 128.777 10.9709 129.115 10.7024C129.453 10.4339 129.704 10.081 129.866 9.64347C130.028 9.20597 130.11 8.73201 130.11 8.22159C130.11 7.71117 130.028 7.23556 129.866 6.79474C129.704 6.35393 129.453 5.99763 129.115 5.72585C128.777 5.45407 128.346 5.31818 127.823 5.31818C127.299 5.31818 126.868 5.45407 126.53 5.72585C126.192 5.99763 125.942 6.35393 125.779 6.79474C125.617 7.23556 125.536 7.71117 125.536 8.22159C125.536 8.73201 125.617 9.20597 125.779 9.64347C125.942 10.081 126.192 10.4339 126.53 10.7024C126.868 10.9709 127.299 11.1051 127.823 11.1051Z" fill="#0071C2"/>
</svg>
