<svg  width="22" height="22" fill="#0071c2" id="Icon" viewBox="0 0 24 24" xmlns="http://www.w3.org/2000/svg"><path d="m6.25 6c0-.414.336-.75.75-.75h8c.414 0 .75.336.75.75s-.336.75-.75.75h-8c-.414 0-.75-.336-.75-.75zm1.75 5.25h-1c-.414 0-.75.336-.75.75s.336.75.75.75h1c.414 0 .75-.336.75-.75s-.336-.75-.75-.75zm-1-1.5h4c.414 0 .75-.336.75-.75s-.336-.75-.75-.75h-4c-.414 0-.75.336-.75.75s.336.75.75.75zm9.955 5.5h-1.205v-1.285c0-.414-.336-.75-.75-.75s-.75.336-.75.75v2.035c0 .414.336.75.75.75h1.955c.414 0 .75-.336.75-.75s-.336-.75-.75-.75zm3.795.75c0 3.17-2.579 5.75-5.75 5.75-1.199 0-2.313-.37-3.235-1h-5.765c-1.517 0-2.75-1.233-2.75-2.75v-13c0-1.517 1.233-2.75 2.75-2.75h10c1.517 0 2.75 1.233 2.75 2.75v6.651c1.222 1.055 2 2.612 2 4.349zm-14.75 3.25h4.261c-.637-.925-1.011-2.044-1.011-3.25 0-3.17 2.579-5.75 5.75-5.75.798 0 1.559.164 2.25.459v-5.709c0-.689-.561-1.25-1.25-1.25h-10c-.689 0-1.25.561-1.25 1.25v13c0 .689.561 1.25 1.25 1.25zm13.25-3.25c0-2.343-1.906-4.25-4.25-4.25s-4.25 1.907-4.25 4.25 1.906 4.25 4.25 4.25 4.25-1.907 4.25-4.25z"/></svg>