<?xml version="1.0" encoding="UTF-8" standalone="no"?>
<!-- Created with Inkscape (http://www.inkscape.org/) -->

<svg
   version="1.1"
   id="svg141"
   xml:space="preserve"
   width="20"
   height="20"
   viewBox="0 0 682.66669 682.66669"
   xmlns="http://www.w3.org/2000/svg"
   xmlns:svg="http://www.w3.org/2000/svg"><defs
     id="defs145"><clipPath
       clipPathUnits="userSpaceOnUse"
       id="clipPath191"><path
         d="M 0,512 H 512 V 0 H 0 Z"
         id="path189" /></clipPath></defs><g
     id="g147"
     transform="matrix(1.3333333,0,0,-1.3333333,0,682.66667)"><g
       id="g149"
       transform="translate(177.0117,398.3632)"><path
         d="M 0,0 H -89.522"
         style="fill:none;stroke:#000000;stroke-width:30;stroke-linecap:round;stroke-linejoin:round;stroke-miterlimit:10;stroke-dasharray:none;stroke-opacity:1"
         id="path151" /></g><g
       id="g153"
       transform="translate(177.0117,338.3594)"><path
         d="M 0,0 H -89.522"
         style="fill:none;stroke:#000000;stroke-width:30;stroke-linecap:round;stroke-linejoin:round;stroke-miterlimit:10;stroke-dasharray:none;stroke-opacity:1"
         id="path155" /></g><g
       id="g157"
       transform="translate(177.0117,278.3557)"><path
         d="M 0,0 H -89.522"
         style="fill:none;stroke:#000000;stroke-width:30;stroke-linecap:round;stroke-linejoin:round;stroke-miterlimit:10;stroke-dasharray:none;stroke-opacity:1"
         id="path159" /></g><g
       id="g161"
       transform="translate(177.0117,218.3518)"><path
         d="M 0,0 H -89.522"
         style="fill:none;stroke:#000000;stroke-width:30;stroke-linecap:round;stroke-linejoin:round;stroke-miterlimit:10;stroke-dasharray:none;stroke-opacity:1"
         id="path163" /></g><g
       id="g165"
       transform="translate(177.0117,157.3423)"><path
         d="M 0,0 H -89.522"
         style="fill:none;stroke:#000000;stroke-width:30;stroke-linecap:round;stroke-linejoin:round;stroke-miterlimit:10;stroke-dasharray:none;stroke-opacity:1"
         id="path167" /></g><g
       id="g169"
       transform="translate(316.9121,398.3632)"><path
         d="M 0,0 H -89.522"
         style="fill:none;stroke:#000000;stroke-width:30;stroke-linecap:round;stroke-linejoin:round;stroke-miterlimit:10;stroke-dasharray:none;stroke-opacity:1"
         id="path171" /></g><g
       id="g173"
       transform="translate(316.9121,338.3594)"><path
         d="M 0,0 H -89.522"
         style="fill:none;stroke:#000000;stroke-width:30;stroke-linecap:round;stroke-linejoin:round;stroke-miterlimit:10;stroke-dasharray:none;stroke-opacity:1"
         id="path175" /></g><g
       id="g177"
       transform="translate(270.5059,278.3557)"><path
         d="M 0,0 H -43.116"
         style="fill:none;stroke:#000000;stroke-width:30;stroke-linecap:round;stroke-linejoin:round;stroke-miterlimit:10;stroke-dasharray:none;stroke-opacity:1"
         id="path179" /></g><g
       id="g181"
       transform="translate(418.2197,154.3118)"><path
         d="m 0,0 -47.572,-59.302 -35.482,25.707"
         style="fill:none;stroke:#000000;stroke-width:30;stroke-linecap:round;stroke-linejoin:round;stroke-miterlimit:10;stroke-dasharray:none;stroke-opacity:1"
         id="path183" /></g><g
       id="g185"><g
         id="g187"
         clip-path="url(#clipPath191)"><g
           id="g193"
           transform="translate(378.6699,234.2966)"><path
             d="m 0,0 c -0.658,0.012 -1.316,0.025 -1.978,0.025 -60.516,0 -109.574,-49.097 -109.574,-109.661 0,-24.759 8.202,-47.6 22.031,-65.955 19.999,-26.544 51.767,-43.706 87.543,-43.706 60.517,0 109.576,49.097 109.576,109.661 C 107.598,-49.733 59.604,-1.056 0,0 Z"
             style="fill:none;stroke:#000000;stroke-width:30;stroke-linecap:round;stroke-linejoin:round;stroke-miterlimit:10;stroke-dasharray:none;stroke-opacity:1"
             id="path195" /></g><g
           id="g197"
           transform="translate(378.6699,234.2966)"><path
             d="m 0,0 v 217.292 c 0,25.08 -20.332,45.411 -45.412,45.411 h -262.113 c -25.08,0 -45.412,-20.331 -45.412,-45.411 v -347.471 c 0,-25.081 20.332,-45.412 45.412,-45.412 h 218.004"
             style="fill:none;stroke:#000000;stroke-width:30;stroke-linecap:round;stroke-linejoin:round;stroke-miterlimit:10;stroke-dasharray:none;stroke-opacity:1"
             id="path199" /></g></g></g></g></svg>
