<svg width="18" height="18" fill="#0071c2" id="Layer_1" enable-background="new 0 0 24 24" viewBox="0 0 24 24" xmlns="http://www.w3.org/2000/svg"><g><g><path d="m12 23c-.2 0-.4-.1-.6-.2l-2.4-1.7h-2.9c-.4 0-.8-.3-1-.7l-.9-2.8-2.4-1.7c-.4-.3-.5-.7-.4-1.1l1-2.8-.9-2.8c-.1-.4 0-.9.4-1.1l2.4-1.7.9-2.8c.1-.4.5-.7 1-.7h2.9l2.4-1.7c.4-.3.8-.3 1.2 0l2.3 1.7h2.9c.4 0 .8.3 1 .7l.9 2.8 2.4 1.7c.4.3.5.7.4 1.1l-1 2.8.9 2.8c.1.4 0 .9-.4 1.1l-2.4 1.7-.9 2.8c-.1.4-.5.7-1 .7h-2.9l-2.4 1.7c-.1.1-.3.2-.5.2zm-2.6-3.9c.2 0 .4.1.6.2l2 1.5 2-1.5c.2-.1.4-.2.6-.2h2.5l.8-2.4c.1-.2.2-.4.4-.5l2-1.5-.8-2.4c-.1-.2-.1-.4 0-.6l.8-2.4-2-1.5c-.2-.1-.3-.3-.4-.5l-.8-2.4h-2.5c-.2 0-.4-.1-.6-.2l-2-1.5-2 1.5c-.2.1-.4.2-.6.2h-2.5l-.8 2.4c-.1.2-.2.4-.4.5l-2 1.5.8 2.4c.1.2.1.4 0 .6l-.8 2.4 2 1.5c.2.1.3.3.4.5l.8 2.4z"/></g><g><path d="m11 15.5c-.3 0-.5-.1-.7-.3l-2.5-2.5c-.4-.4-.4-1 0-1.4s1-.4 1.4 0l1.8 1.8 4.3-4.3c.4-.4 1-.4 1.4 0s.4 1 0 1.4l-5 5c-.2.2-.4.3-.7.3z"/></g></g></svg>