<svg width="18" height="15" viewBox="0 0 18 15" fill="none" xmlns="http://www.w3.org/2000/svg">
<path d="M16.7656 2.74304C16.7656 2.82507 17.2852 5.06726 15.7812 7.20007C14.7422 8.73132 13.0195 9.79773 10.6406 10.4266C10.1484 10.5634 9.79297 11.0282 9.79297 11.5477C9.79297 12.204 10.3125 12.7235 10.9688 12.7235H11.1055C11.8164 12.7235 12.418 13.3251 12.418 14.036C12.418 14.2821 12.2539 14.4735 12.0078 14.4735H5.91016C5.69141 14.4735 5.5 14.2821 5.5 14.036C5.5 13.3251 6.07422 12.7235 6.8125 12.7235H6.92188C7.57812 12.7235 8.125 12.204 8.09766 11.5477C8.09766 11.0282 7.76953 10.5634 7.25 10.4266C4.87109 9.79773 3.14844 8.73132 2.13672 7.20007C0.6875 5.06726 1.20703 2.82507 1.20703 2.74304C1.28906 2.44226 1.5625 2.22351 1.86328 2.22351H4.625C4.59766 1.89539 4.59766 1.5946 4.625 1.32117C4.625 0.856323 5.00781 0.473511 5.5 0.473511H12.4727C12.9648 0.473511 13.3477 0.856323 13.3477 1.32117C13.375 1.5946 13.375 1.89539 13.3477 2.22351H16.1094C16.4102 2.22351 16.6836 2.44226 16.7656 2.74304ZM3.23047 6.48914C3.85938 7.44617 4.87109 8.18445 6.21094 8.73132C5.19922 7.14539 4.78906 5.17664 4.625 3.53601H2.4375C2.41016 4.19226 2.46484 5.36804 3.23047 6.48914ZM14.7422 6.48914C15.5078 5.36804 15.5625 4.19226 15.5352 3.53601H13.3477C13.1836 5.17664 12.7734 7.14539 11.7617 8.73132C13.1016 8.18445 14.1133 7.44617 14.7422 6.48914Z" fill="#F6C25D"/>
</svg>
