<svg xmlns="http://www.w3.org/2000/svg" width="165" height="22" viewBox="0 0 165 22" fill="none">
  <g clip-path="url(#clip0_1_401)">
    <path d="M138.166 11.9862C137.552 11.8697 136.702 12.1028 136.702 12.1028L142.742 21.8917H144.39L138.175 11.9946L138.166 11.9862Z" fill="#F4E56F"/>
    <path d="M85.6118 6.71735C85.4891 3.18803 82.7452 1.44834 78.9056 1.44834C76.5299 1.44834 73.1724 2.43056 73.1724 5.85167C73.1724 9.27278 76.7666 9.73059 80.3082 10.4215C83.9024 11.1124 87.444 12.0446 87.444 16.1566C87.444 20.2686 83.2975 21.95 80.0627 21.95C75.1886 21.95 71.1561 19.9856 71.2175 14.6583H72.4974C72.2519 19.1782 75.9162 20.8513 80.054 20.8513C82.5524 20.8513 86.1553 19.7525 86.1553 16.1649C86.1553 12.5774 82.5611 12.053 79.0195 11.3621C75.4867 10.6712 71.8837 9.79718 71.8837 5.85999C71.8837 1.9228 75.6007 0.35791 78.8968 0.35791C83.2887 0.35791 86.6988 2.21413 86.8829 6.72567H85.6031L85.6118 6.71735Z" fill="#F4E56F"/>
    <path d="M92.1343 1.09863H101.041C103.417 1.09863 107.142 1.90605 107.142 6.89205C107.142 10.4796 104.767 12.5689 100.559 12.5689H93.4229V21.7751H92.143V1.09863H92.1343ZM93.4142 11.4619H100.795C104.574 11.4619 105.854 9.03128 105.854 6.89205C105.854 5.38543 105.126 2.26398 100.98 2.26398H93.4229V11.4702L93.4142 11.4619Z" fill="#F4E56F"/>
    <path d="M116.583 1.09863L124.876 21.7668H123.474L120.853 15.166H110.85L108.168 21.7668H106.765L115.181 1.09863H116.583ZM120.423 14.0672L115.908 2.37219H115.847L111.21 14.0672H120.414H120.423Z" fill="#F4E56F"/>
    <path d="M137.93 12.3945C138.482 12.3945 136.895 12.7441 139.516 12.1614C142.137 11.5787 143.479 9.26468 143.479 6.48451C143.479 2.48905 140.489 1.15723 136.834 1.15723H128.111V21.8254H129.391V12.4444H136.834C137.018 12.3861 137.447 12.3861 137.93 12.3861V12.3945ZM129.391 2.19771H136.834C139.639 2.19771 142.199 3.35473 142.199 6.48451C142.199 9.78076 139.885 11.2291 136.834 11.2291H129.391V2.19771Z" fill="#F4E56F"/>
    <path d="M148.353 1.09863H149.632V12.9685L162.799 1.09863H164.448L154.875 9.6639L165 21.7085H163.413L153.963 10.5962L149.632 14.4751V21.7668H148.353V1.09863Z" fill="#F4E56F"/>
    <path d="M25.3086 0.349609H36.7136C44.2176 0.349609 46.9001 5.61862 46.9001 11.0042C46.9001 17.5467 43.2445 21.717 35.3723 21.717H25.3086V0.349609ZM32.2603 16.2732H35.0042C39.3347 16.2732 39.9396 12.9187 39.9396 10.9459C39.9396 9.61408 39.5101 5.85169 34.4519 5.85169H32.2603V16.2732Z" fill="white"/>
    <path d="M54.5092 14.4752C54.5092 14.9996 54.6319 15.4574 54.7546 15.8653C55.2455 17.1389 56.7709 17.3719 58.0508 17.3719C59.2079 17.3719 60.9174 17.0223 60.9174 15.4574C60.9174 14.3587 59.9443 14.0673 56.1046 13.0269C52.5718 12.1029 48.4867 11.1706 48.4867 6.95044C48.4867 2.08929 52.94 0 57.5073 0C62.3813 0 66.6505 1.73969 66.896 6.8339H60.3739C60.4966 6.02648 60.1284 5.50208 59.5849 5.15248C59.0326 4.74461 58.2436 4.62807 57.5686 4.62807C56.6569 4.62807 55.0702 4.86114 55.0702 6.01816C55.1929 7.52478 58.4277 7.87439 61.5924 8.6818C64.757 9.48922 67.9304 10.8793 67.9304 14.7582C67.9304 20.2603 62.5654 21.9917 57.5686 21.9917C55.0089 21.9917 47.7503 21.126 47.689 14.4086L54.5179 14.4669L54.5092 14.4752Z" fill="white"/>
    <path d="M16.095 0.349609L0 21.7669H7.92477L11.9485 15.5157L15.7356 21.7669H24.0811L16.0336 10.4215L23.2922 0.349609H16.095Z" fill="white"/>
    <path d="M8.04726 0.349609L11.4661 4.91942L7.67907 9.83883L0.850098 0.349609H8.04726Z" fill="#F4E56F"/>
  </g>
  <defs>
    <clipPath id="clip0_1_401">
      <rect width="165" height="22" fill="white"/>
    </clipPath>
  </defs>
</svg>