<svg width="16" height="16" viewBox="0 0 16 16" fill="none" xmlns="http://www.w3.org/2000/svg">
<path d="M13.601 12.1863L12.243 10.8283C12.218 10.8033 12.185 10.7943 12.159 10.7723C12.689 9.97827 13 9.02627 13 7.99927C13 6.97427 12.689 6.02127 12.159 5.22727C12.185 5.20627 12.218 5.19627 12.243 5.17127L13.601 3.81327C14.476 4.98227 15 6.42827 15 7.99927C15 9.57227 14.476 11.0183 13.601 12.1863ZM8 14.9993C6.428 14.9993 4.982 14.4753 3.814 13.6003L5.172 12.2423C5.197 12.2173 5.206 12.1853 5.227 12.1583C6.021 12.6883 6.974 12.9993 8 12.9993C9.026 12.9993 9.979 12.6883 10.773 12.1583C10.794 12.1853 10.804 12.2173 10.829 12.2423L12.186 13.6003C11.018 14.4753 9.572 14.9993 8 14.9993ZM2.399 12.1863C1.525 11.0183 1 9.57227 1 7.99927C1 6.42827 1.525 4.98227 2.399 3.81327L3.758 5.17127C3.782 5.19627 3.815 5.20627 3.842 5.22727C3.311 6.02127 3 6.97427 3 7.99927C3 9.02627 3.311 9.97827 3.842 10.7723C3.815 10.7943 3.782 10.8033 3.758 10.8283L2.399 12.1863ZM8 11.9993C5.791 11.9993 4 10.2093 4 7.99927C4 5.79027 5.791 3.99927 8 3.99927C10.209 3.99927 12 5.79027 12 7.99927C12 10.2093 10.209 11.9993 8 11.9993ZM8 0.999268C9.572 0.999268 11.018 1.52427 12.186 2.39927L10.829 3.75727C10.804 3.78227 10.794 3.81427 10.773 3.84127C9.979 3.31127 9.026 2.99927 8 2.99927C6.974 2.99927 6.021 3.31127 5.227 3.84127C5.206 3.81427 5.197 3.78227 5.172 3.75727L3.814 2.39927C4.982 1.52427 6.428 0.999268 8 0.999268ZM8 -0.000732422C3.582 -0.000732422 0 3.58227 0 7.99927C0 12.4183 3.582 15.9993 8 15.9993C12.418 15.9993 16 12.4183 16 7.99927C16 3.58227 12.418 -0.000732422 8 -0.000732422Z" fill="white"/>
</svg>
