<svg width="16" height="16" viewBox="0 0 16 16" fill="none" xmlns="http://www.w3.org/2000/svg">
<path d="M4.93452 3.0632C5.13824 3.13014 5.32463 3.23979 5.48157 3.38411L5.59356 3.49873L11.6634 10.4142C12.2099 11.0368 12.1482 11.9846 11.5255 12.5311C11.3768 12.6616 11.204 12.7611 11.0175 12.8244L10.8751 12.8649L1.84396 14.9606C1.03697 15.1479 0.230975 14.6455 0.0437092 13.8385C-0.00592556 13.6246 -0.0078501 13.4031 0.0372384 13.1896L0.0798589 13.0311L3.04119 4.01992C3.29983 3.2329 4.1475 2.80456 4.93452 3.0632ZM4.02692 4.24925L3.99121 4.33212L1.02987 13.3433C1.00131 13.4303 0.997144 13.5233 1.01783 13.6125C1.07331 13.8516 1.29176 14.0105 1.52854 13.999L1.61791 13.9865L4.55488 13.305L3.15649 11.7972C2.96869 11.5947 2.98058 11.2783 3.18304 11.0905C3.363 10.9236 3.63296 10.9145 3.82262 11.0567L3.88965 11.1171L5.67688 13.044L8.31088 12.433L5.11332 8.83207C4.92996 8.62559 4.94869 8.30957 5.15516 8.1262C5.33869 7.9632 5.60878 7.95989 5.79532 8.10618L5.86103 8.16803L9.41988 12.175L10.6491 11.8908C10.7026 11.8783 10.7536 11.8572 10.8 11.8284L10.8659 11.7795C11.0504 11.6176 11.0871 11.35 10.9651 11.1467L10.9118 11.0739L4.842 4.15839C4.8027 4.11362 4.75589 4.07642 4.7039 4.04833L4.62232 4.01321L4.53442 3.99281C4.32896 3.96428 4.12583 4.06693 4.02692 4.24925ZM15.6867 9.28803C16.3561 10.4956 15.9198 12.0172 14.7122 12.6866C14.4707 12.8205 14.1663 12.7332 14.0325 12.4917C13.8986 12.2502 13.9859 11.9459 14.2274 11.812C14.9519 11.4103 15.2137 10.4974 14.8121 9.77283C14.4105 9.04828 13.4975 8.78649 12.7729 9.18812C12.5314 9.322 12.2271 9.23473 12.0932 8.99321C11.9594 8.75169 12.0466 8.44738 12.2881 8.3135C13.4957 7.64412 15.0173 8.08043 15.6867 9.28803ZM10.6576 3.08183C10.8906 3.15915 11.0287 3.39132 10.9954 3.62603L10.9747 3.71387L10.2982 5.74905L12.3657 5.02799C12.5975 4.94709 12.8485 5.0468 12.9654 5.25306L13.0026 5.33526C13.0835 5.567 12.9838 5.81804 12.7775 5.93489L12.6953 5.97211L9.66934 7.02844C9.30367 7.1561 8.94979 6.84014 9.0105 6.47723L9.03 6.39889L10.0256 3.39889C10.1126 3.13681 10.3956 2.99485 10.6576 3.08183ZM14.5002 4.00005C14.7763 4.00005 15.0002 4.22391 15.0002 4.50005C15.0002 4.77619 14.7763 5.00005 14.5002 5.00005C14.224 5.00005 14.0002 4.77619 14.0002 4.50005C14.0002 4.22391 14.224 4.00005 14.5002 4.00005ZM7.86176 0.403373C9.01972 1.15536 9.34883 2.70368 8.59684 3.86165C8.44644 4.09324 8.13677 4.15906 7.90518 4.00866C7.67359 3.85827 7.60777 3.5486 7.75817 3.31701C8.20936 2.62223 8.0119 1.69324 7.31712 1.24204C6.62234 0.79085 5.69335 0.988313 5.24215 1.68309C5.09176 1.91468 4.78209 1.9805 4.5505 1.83011C4.31891 1.67971 4.25309 1.37004 4.40348 1.13845C5.15547 -0.0195105 6.70379 -0.348616 7.86176 0.403373ZM13.5002 2.00005C13.7763 2.00005 14.0002 2.22391 14.0002 2.50005C14.0002 2.77619 13.7763 3.00005 13.5002 3.00005C13.224 3.00005 13.0002 2.77619 13.0002 2.50005C13.0002 2.22391 13.224 2.00005 13.5002 2.00005ZM10.5002 1.00005C10.7763 1.00005 11.0002 1.22391 11.0002 1.50005C11.0002 1.77619 10.7763 2.00005 10.5002 2.00005C10.224 2.00005 10.0002 1.77619 10.0002 1.50005C10.0002 1.22391 10.224 1.00005 10.5002 1.00005ZM14.5002 4.95297e-05C14.7763 4.95297e-05 15.0002 0.223907 15.0002 0.50005C15.0002 0.776192 14.7763 1.00005 14.5002 1.00005C14.224 1.00005 14.0002 0.776192 14.0002 0.50005C14.0002 0.223907 14.224 4.95297e-05 14.5002 4.95297e-05Z" fill="white"/>
</svg>
